<svg xmlns="http://www.w3.org/2000/svg" data-name="Layer 1" viewBox="0 0 700 550" id="maintain-distance"><defs><clipPath id="a"><rect width="700" height="550" fill="none"></rect></clipPath><clipPath id="b"><path fill="none" d="M148.444,137.175c-7.785,1.105-77.591,11.921-116.411,54.025A97.763,97.763,0,0,0,8.389,237.299C3.41,260.844-6.16,319.563,15,347.155c3.654,4.764,6.271,7.795,6.712,8.462,32.688,49.369,100.186,52.737,126.068,54.03,86.457,4.315,96.242-39.363,176.92-45.555,50.553-3.879,81.969,10.565,112.232,25.009,32.669,15.591,63.994,31.184,116.599,23.724,2.865-.406,17.258-2.681,36.684-7.574,83.04-20.912,129.024-109.838,98.397-189.807-4.592-11.993-7.859-20.321-8.35-21.061-32.686-49.369-100.184-52.737-126.068-54.03-86.455-4.315-96.242,39.363-176.919,45.555-50.554,3.88-81.97-10.564-112.232-25.008-26.869-12.824-52.826-25.647-90.463-25.647a185.89374,185.89374,0,0,0-26.136,1.922"></path></clipPath><clipPath id="c"><path fill="none" d="M581.487,316.461a23.33626,23.33626,0,0,1-29.017-.138L534.968,302.296s-19.738,8.224-43,20.912c-16.662,9.089-27.365,52.571-32.097,76.515,25.51,10.992,53.329,18.821,93.66,13.102,2.865-.406,17.258-2.681,36.684-7.574A141.68734,141.68734,0,0,0,662.7,360.907c-4.458-17.013-10.945-32.655-20.192-37.699-23.263-12.688-43-20.912-43-20.912Z"></path></clipPath></defs><g clip-path="url(#a)"><path fill="#fff9e7" d="M688.6123,215.44431c30.626,79.969-15.357,168.894-98.397,189.807-19.426,4.892-33.819,7.167-36.685,7.573-101.334,14.37-123.702-56.8-228.82995-48.732-80.678,6.192-90.464,49.87-176.92,45.554-25.883-1.292-93.381-4.661-126.068-54.029-.442-.667-3.058-3.698-6.712-8.462-21.159-27.592-11.59-86.312-6.612-109.857a97.76519,97.76519,0,0,1,23.645-46.099c38.819-42.104,108.626-52.92,116.41094-54.024,101.335-14.37,123.703,56.801,228.83,48.732,80.678-6.192,90.465-49.869,176.92-45.554,25.884,1.292,93.382,4.661,126.068,54.029.491.74,3.757,9.069,8.35,21.062"></path><rect width="261.52" height="2.707" x="219.24" y="267.995"></rect><path d="M236.7861 269.3486a8.773 8.773 0 11-8.772-8.773 8.77305 8.77305 0 018.772 8.773M480.7598 269.3486a8.773 8.773 0 11-8.773-8.773 8.77327 8.77327 0 018.773 8.773"></path></g><g clip-path="url(#b)"><polygon points="102.102 228.911 112.011 257.401 100.275 229.614 102.102 228.911"></polygon><polygon points="157.411 257.155 165.643 229.262 159.307 257.646 157.411 257.155"></polygon><path fill="#946026" d="M108.4658,265.22461v-15.813l22.187-6.667a12.05291,12.05291,0,0,1,7.209.085l22.319,7.287v12.396a68.95723,68.95723,0,0,1-8.459,14.445c-4.935,6.055-24.438,11.804-36.304,0Z"></path><path d="M104.1074,234.88181s3.289-9.634,8.929-12.454c5.639-2.819,7.049-4.699,7.049-4.699s.47,5.404,0,6.814,3.29-3.289,4.934-6.814c0,0,11.279,1.174,13.159-12.689,0,0,17.388-2.115,20.207,4.935,2.821,7.049,6.11,20.443,5.64,24.907,0,0,3.76,3.524,4.465-17.153,0,0,.705-5.639,3.524-7.284,2.82-1.645-6.579-10.339-6.579-10.339s-.235-4.23-1.41-6.11-7.754-2.82-9.164-3.289c-1.409-.47-1.88-5.639-4.23-5.639-2.349,0-5.169,1.174-8.459-3.055-3.289-4.23-8.223,0-8.223,0s-2.115,1.879-6.11,1.175c-3.995-.705-4.229-3.055-8.224,1.174-3.994,4.23-3.289,4.7-7.989,4.23s-7.285,1.41-7.519,4.935c-.235,3.524-1.41,7.753-3.995,9.633s-4.935,6.11-2.35,8.93c2.585,2.819,3.29,14.568,3.76,18.092.47,3.525,2.585,4.7,2.585,4.7"></path><path fill="#49494a" d="M113.1924 231.59229a8.37661 8.37661 0 015.975-4.818 6.57511 6.57511 0 014.074.524 6.78509 6.78509 0 012.875 2.649 19.03682 19.03682 0 00-3.384-1.217 9.73373 9.73373 0 00-1.623-.191 8.06278 8.06278 0 00-1.595.136 11.86681 11.86681 0 00-3.149 1.1c-1.046.515-2.078 1.135-3.173 1.817M141.70309 229.59671a8.62683 8.62683 0 012.911-2.139 10.09415 10.09415 0 013.559-.934 7.85735 7.85735 0 013.714.626 5.79338 5.79338 0 012.74 2.447 14.55413 14.55413 0 00-3.203-.998 13.28694 13.28694 0 00-3.125-.146 26.77935 26.77935 0 00-3.208.443c-1.093.21-2.197.462-3.388.701M120.7119 239.5845c3.733 0 3.739-5.802 0-5.802-3.733 0-3.739 5.802 0 5.802M148.126 239.81931c3.733 0 3.739-5.802 0-5.802-3.733 0-3.74 5.802 0 5.802"></path><path d="M152.02541 274.37549c-4.303 4.876-8.539 7.512-12.514 8.677 0 0 10.034 1.1 12.514-1.267zM115.7383 275.07281a30.094 30.094 0 0012.656 8.59s-11.04 2.69-12.656-1.07zM121.8789 250.82129a15.16441 15.16441 0 0111.064-5.436 13.79741 13.79741 0 013.229.299 14.27666 14.27666 0 015.66 2.87 18.84108 18.84108 0 012.135 2.267c-.949-.456-1.764-1.042-2.668-1.466a19.89281 19.89281 0 00-2.708-1.136l-.686-.227a2.98878 2.98878 0 00-.688-.196l-1.398-.291a16.84322 16.84322 0 00-2.828-.163 19.21963 19.21963 0 00-5.639 1.024 33.71086 33.71086 0 00-5.473 2.455M117.3555 255.96481c2.741-.16 5.482-.234 8.225-.296 2.741-.064 5.482-.058 8.224-.09 2.741.03 5.483.027 8.225.088 2.741.063 5.483.137 8.224.298-2.741.161-5.483.235-8.224.297-2.742.062-5.484.059-8.225.089-2.742-.032-5.483-.026-8.224-.09-2.743-.062-5.484-.136-8.225-.296M115.75 264.8613c3.213-.159 6.426-.234 9.639-.296 3.214-.064 6.426-.058 9.639-.09 3.213.03 6.426.027 9.639.089s6.426.136 9.639.297c-3.213.161-6.426.235-9.639.298-3.213.061-6.426.058-9.639.089-3.213-.033-6.425-.027-9.639-.091-3.213-.062-6.426-.136-9.639-.296M121.8789 273.92871c2.158-.16 4.314-.234 6.473-.296 2.156-.064 4.313-.058 6.47-.091 2.158.031 4.315.028 6.472.089 2.157.063 4.314.137 6.472.298-2.158.161-4.315.235-6.472.297s-4.314.059-6.472.089c-2.157-.032-4.314-.026-6.47-.09-2.159-.062-4.315-.137-6.473-.296"></path><path fill="#817ab8" d="M104.2637,206.0723s38.574-9.167,59.67,2.638l-.209,4.73s-29.872-.484-59.707-1.804Z"></path><path fill="#49494a" d="M104.0176 211.63669l.159 23.048c.497-1.367 3.69-9.672 8.86-12.256 5.639-2.82 7.048-4.7 7.048-4.7s.471 5.405 0 6.814c-.469 1.41 3.29-3.289 4.935-6.814a11.92549 11.92549 0 0010.506-5.14zM163.72459 213.4404l-4.122-.125a109.98947 109.98947 0 013.97 15.708z"></path><path fill="#be7930" d="M130.65331,242.7446l-22.187,6.667v15.813l3.571,6.027c9.885-.325,27.662-.507,42.703,1.502a75.63364,75.63364,0,0,0,5.44-10.241v-12.396l-22.318-7.287a12.05331,12.05331,0,0,0-7.209-.085"></path><path fill="#dadad9" d="M112.4717 240.87109a70.34869 70.34869 0 016.077-7.081 80.8542 80.8542 0 016.863-6.348 62.83949 62.83949 0 017.664-5.383c.672-.398 1.375-.746 2.061-1.12a21.88482 21.88482 0 012.106-1.026 34.84735 34.84735 0 014.393-1.595q-1.04852.519-2.1 1.003c-.711.299-1.36.739-2.039 1.101-.681.359-1.355.729-2 1.155-.649.416-1.314.802-1.949 1.238-2.553 1.724-5.011 3.579-7.401 5.525-2.397 1.939-4.689 4.008-6.977 6.085-1.146 1.038-2.266 2.106-3.371 3.191-1.135 1.056-2.221 2.162-3.327 3.255M121.29 247.53711a70.34648 70.34648 0 016.077-7.081 80.68962 80.68962 0 016.864-6.347 62.94727 62.94727 0 017.663-5.384c.672-.398 1.376-.746 2.061-1.12a22.127 22.127 0 012.106-1.026 34.8056 34.8056 0 014.394-1.595c-.7.347-1.398.682-2.101 1.004-.711.298-1.359.738-2.038 1.1-.681.359-1.356.729-2.001 1.156-.649.415-1.314.801-1.949 1.238-2.552 1.723-5.011 3.579-7.401 5.524-2.397 1.94-4.688 4.008-6.977 6.086-1.146 1.037-2.265 2.106-3.37 3.19-1.136 1.057-2.221 2.162-3.328 3.255"></path><path fill="#49494a" d="M121.8799 250.82129a14.56572 14.56572 0 014.882-3.87 14.81116 14.81116 0 016.182-1.593 13.91179 13.91179 0 013.231.32 13.489 13.489 0 013.032 1.097 13.82531 13.82531 0 014.76 4.046 28.99952 28.99952 0 00-5.364-2.63 17.9056 17.9056 0 00-2.781-.69 16.73675 16.73675 0 00-2.828-.186 19.55875 19.55875 0 00-5.639 1.051 32.2141 32.2141 0 00-5.475 2.455M117.3545 255.96481q4.113-.22347 8.226-.301c2.741-.061 5.482-.078 8.224-.086 2.741.007 5.483.024 8.225.085q4.11148.0765 8.224.302-4.11149.225-8.224.302c-2.742.061-5.484.078-8.225.085-2.742-.008-5.483-.025-8.224-.086q-4.11451-.07655-8.226-.301M115.75 264.86179q4.8195-.22348 9.639-.301c3.214-.062 6.426-.078 9.639-.086 3.213.007 6.426.024 9.639.085q4.8195.0765 9.639.302-4.81952.225-9.639.302c-3.213.061-6.426.078-9.639.084-3.213-.007-6.425-.024-9.639-.085q-4.81951-.07653-9.639-.301"></path><path d="M164.09959,275.39941l-1.175-.254c-22.256-4.819-58.069-2.599-58.429-2.576l-1.035.067-.423-60.993,1.959-.014.408,58.927c5.969-.32,36.371-1.684,56.759,2.43l.582-59.556,1.958.02Z"></path><path d="M101.8301 231.5918a15.78421 15.78421 0 00-3.194 4.569 8.27979 8.27979 0 00-.638 5.266 7.8577 7.8577 0 001.015 2.423 11.49284 11.49284 0 001.721 2.036 19.63631 19.63631 0 004.464 3.103l.313.167.085.389c.511 2.348 1.13 4.725 1.839 7.047.72 2.325 1.495 4.631 2.373 6.895.869 2.269 1.892 4.467 2.961 6.634a51.99351 51.99351 0 003.722 6.187l.185.266-.005.284c-.052 2.678-.033 5.271-.143 8.02a19.91513 19.91513 0 01-2.299 7.894 18.39729 18.39729 0 01-5.346 6.13 16.59794 16.59794 0 01-7.361 3.117 17.616 17.616 0 006.897-3.703 18.70169 18.70169 0 004.655-6.131 20.62829 20.62829 0 001.287-3.614 19.87642 19.87642 0 00.516-3.786c.034-2.565-.052-5.29-.07-7.927l.178.549a56.26712 56.26712 0 01-6.966-13.232c-.875-2.327-1.668-4.684-2.322-7.079-.652-2.399-1.246-4.792-1.669-7.27l.397.556a21.15482 21.15482 0 01-4.646-3.545 12.50432 12.50432 0 01-1.782-2.387 8.39428 8.39428 0 01.145-8.532 14.24755 14.24755 0 013.688-4.326M165.42191 231.5918a14.23374 14.23374 0 013.688 4.326 8.38739 8.38739 0 01.145 8.532 12.50432 12.50432 0 01-1.782 2.387 21.15464 21.15464 0 01-4.646 3.545l.398-.556c-.424 2.478-1.017 4.871-1.67 7.27-.654 2.395-1.446 4.752-2.321 7.079a56.2704 56.2704 0 01-6.967 13.232l.179-.549c-.019 2.637-.104 5.362-.07 7.927a19.79533 19.79533 0 00.515 3.786 20.70816 20.70816 0 001.287 3.614 18.71536 18.71536 0 004.655 6.131 17.613 17.613 0 006.898 3.703 16.60177 16.60177 0 01-7.362-3.117 18.39715 18.39715 0 01-5.346-6.13 19.93 19.93 0 01-2.298-7.894c-.111-2.749-.091-5.342-.143-8.02l-.006-.284.185-.266a52.13385 52.13385 0 003.723-6.187c1.069-2.167 2.091-4.365 2.96-6.634.878-2.264 1.654-4.57 2.374-6.895.709-2.322 1.327-4.699 1.838-7.047l.085-.389.313-.167a19.63659 19.63659 0 004.464-3.103 11.49236 11.49236 0 001.721-2.036 7.85722 7.85722 0 001.015-2.423 8.286 8.286 0 00-.637-5.266 15.78794 15.78794 0 00-3.195-4.569"></path><path fill="#ef4d59" d="M237.9639,415.35249s-5.786-79.732-29.048-92.421c-23.263-12.688-43.001-20.912-43.001-20.912l-14.216-13.864-9.281,18.798v5.404l-8.459,15.273h-.627l-8.459-15.273v-5.404l-9.281-18.798-14.216,13.864s-19.738,8.224-43.001,20.912c-23.263,12.689-34.908,92.421-34.908,92.421"></path><polygon points="101.376 302.019 108.64 327.161 124.873 306.953 124.873 312.358 107.485 333.27 99.333 302.891 101.376 302.019"></polygon><polygon points="165.909 302.019 158.645 327.161 142.412 306.953 142.412 312.358 159.8 333.27 167.952 302.891 165.909 302.019"></polygon><path d="M133.332,327.63091q.5685,8.19452.761,16.39c.156,5.463.198,10.926.218,16.389-.018,5.463-.059,10.927-.215,16.389q-.192,8.196-.764,16.39-.57152-8.19448-.764-16.39c-.156-5.462-.197-10.926-.215-16.389.02-5.463.062-10.926.218-16.389q.1935-8.196.761-16.39"></path><polygon points="66.061 352.068 66.061 414.954 61.098 427.531 66.061 352.068"></polygon><polygon points="198.419 352.068 198.419 414.954 203.381 427.531 198.419 352.068"></polygon><path d="M155.18159 374.58591h30.344s-16.405 6.266-30.344 0M158.35941 402.54829c1.021.639 2.056 1.249 3.127 1.79 1.054.569 2.132 1.092 3.23 1.561a39.14125 39.14125 0 006.756 2.294 27.52683 27.52683 0 007.055.748l1.777-.126c.595-.038 1.168-.21 1.757-.305l.883-.157c.293-.061.57-.173.857-.258q.8535-.2775 1.724-.534a19.11738 19.11738 0 01-6.963 1.974 25.68518 25.68518 0 01-7.266-.59 34.87974 34.87974 0 01-6.831-2.51 31.96127 31.96127 0 01-6.106-3.887M141.2422 346.5723c3.734 0 3.74-5.802 0-5.802-3.733 0-3.739 5.802 0 5.802M141.2422 378.939c3.734 0 3.74-5.802 0-5.802-3.733 0-3.739 5.802 0 5.802M141.2422 408.8208c3.734 0 3.74-5.802 0-5.802-3.733 0-3.739 5.802 0 5.802M530.80469 206.71s5.24194 22.909 14.891 34.088c9.64795 11.179 3.488 42.163 3.488 42.163 3.287 33.362-37.038 29.825-37.038 29.825 5.192-2.576 10.217-27.601 7.71-53.013-2.507-25.411 10.949-53.063 10.949-53.063M604.69342 206.71s-5.242 22.909-14.891 34.088c-9.648 11.179-8.192 48.995-8.192 48.995 6.462 32.999 41.743 22.993 41.743 22.993-5.193-2.576-10.217-27.601-7.711-53.013 2.507-25.411-10.949-53.063-10.949-53.063"></path><path fill="#fff" d="M600.85248,229.8735s12.362,14.214-3.616,19.854c0,0-2.366,17.468-11.766,27.518l-.179,12.427s4.328,10.517,14.216,12.623l-13.472,17.1a24.21494,24.21494,0,0,1-38.285-.314l-12.783-16.786c8.847-.017,14.216-11.448,14.216-11.448v-13.713c-8.028-10.998-10.926-27.173-10.926-27.173-14.803-8.224-2.982-18.092-2.982-18.092,1.986-23.512,22.92-38.256,40.287-34.59,13.155,2.778,24.065,16.077,25.29,32.594"></path><polygon points="535.868 228.051 545.776 256.541 534.041 228.754 535.868 228.051"></polygon><polygon points="591.178 256.296 599.41 228.403 593.074 256.787 591.178 256.296"></polygon><path d="M537.55267,235.15869s3.494-9.257,8.929-12.454c9.31-5.476,17.075-3.186,22.607-10.877a15.13454,15.13454,0,0,1,14.967-6.262c3.527.651,6.704,2.006,7.776,4.686,2.82,7.049,6.11,20.442,5.639,24.907,0,0,3.76,3.524,4.465-17.153,0,0,.705-5.639,3.524-7.284,2.821-1.646-3.017-11.596-3.017-11.596s-3.003-3.833-4.972-4.853c-41.679-21.606-61.328,7.284-63.913,9.164-2.584,1.88-4.934,6.11-2.35,8.93,2.585,2.819,3.29,14.568,3.76,18.092.47,3.525,2.585,4.7,2.585,4.7"></path><path d="M546.63867 231.86871a7.9844 7.9844 0 017.012-4.935l1.051.044a6.9491 6.9491 0 013.636 1.733 8.41005 8.41005 0 011.224 1.513c-.639-.202-1.161-.511-1.735-.699a10.209 10.209 0 00-1.66-.483 9.34324 9.34324 0 00-1.614-.213 9.53884 9.53884 0 00-1.592.147 12.26823 12.26823 0 00-3.142 1.091c-1.047.51-2.082 1.125-3.18 1.802M575.14838 229.8735a8.59126 8.59126 0 012.91-2.143 10.28793 10.28793 0 013.558-.942 8.12746 8.12746 0 013.715.635 6.00114 6.00114 0 012.741 2.45 16.27325 16.27325 0 00-3.209-.983 14.80081 14.80081 0 00-3.119-.148 54.98 54.98 0 00-6.59594 1.131M554.15723 239.89749c3.78 0 3.78595-5.875 0-5.875-3.77906 0-3.786 5.875 0 5.875M581.57129 240.13229c3.78 0 3.786-5.875 0-5.875-3.78 0-3.786 5.875 0 5.875"></path><path fill="#f9c746" d="M542.23138,264.3652v-15.813l22.188-6.667a12.053,12.053,0,0,1,7.209.085l22.318,7.287v12.396a68.90851,68.90851,0,0,1-8.459,14.445c-4.935,6.055-24.438,11.804-36.304,0Z"></path><path d="M600.85352,229.8735a23.34839,23.34839,0,0,1,3.396,5.246,12.75485,12.75485,0,0,1,1.334,6.126,8.2549,8.2549,0,0,1-.808,3.09,9.435,9.435,0,0,1-1.931,2.559,16.25483,16.25483,0,0,1-5.483,3.187l.248-.304a67.05452,67.05452,0,0,1-1.516,7.481,69.7043,69.7043,0,0,1-2.346,7.265,54.85636,54.85636,0,0,1-3.28,6.925,38.54169,38.54169,0,0,1-4.507,6.255l.181-.449-.076,12.429-.059-.305a24.66616,24.66616,0,0,0,2.405,4.083,25.2837,25.2837,0,0,0,3.125,3.578,18.35255,18.35255,0,0,0,3.794,2.772,16.7278,16.7278,0,0,0,4.357,1.64l1.312.338-.814,1.04-13.416,17.124a25.07269,25.07269,0,0,1-30.556,7.185,24.8134,24.8134,0,0,1-8.751-6.986c-4.466-5.771-8.779-11.559-13.176-17.338l-1.008-1.324,1.688-.052a11.28522,11.28522,0,0,0,4.27-.986,16.2223,16.2223,0,0,0,3.721-2.559,24.53642,24.53642,0,0,0,3.079-3.444,27.755,27.755,0,0,0,2.459-3.926l-.073.324.115-13.713.124.381a52.83522,52.83522,0,0,1-3.828-6.406,70.76242,70.76242,0,0,1-2.964-6.813c-.866-2.318-1.634-4.669-2.28705-7.051-.653-2.384-1.227-4.779-1.667-7.223l.173.242a20.61555,20.61555,0,0,1-4.577-3.436,12.176,12.176,0,0,1-1.76-2.284,8.23183,8.23183,0,0,1-.009-8.275,15.04474,15.04474,0,0,1,3.533-4.401,14.95281,14.95281,0,0,0-3.349,4.493,8.57017,8.57017,0,0,0-.79,5.401,8.2322,8.2322,0,0,0,1.013,2.547,11.7554,11.7554,0,0,0,1.744,2.138,20.05512,20.05512,0,0,0,4.532,3.211l.138.075.035.167a91.09517,91.09517,0,0,0,4.25,14.019,69.939,69.939,0,0,0,3.026,6.653,51.50026,51.50026,0,0,0,3.83295,6.18l.122.171.002.211.114,13.713.001.172-.073.152a29.134,29.134,0,0,1-2.544,4.223,24.22475,24.22475,0,0,1-3.247,3.723,17.93225,17.93225,0,0,1-4.12695,2.862,12.94756,12.94756,0,0,1-4.986,1.173l.681-1.376c4.415,5.737,8.803,11.556,13.241,17.226a22.97061,22.97061,0,0,0,8.134,6.425,23.39258,23.39258,0,0,0,28.296-6.616l13.509-17.05.498,1.378a18.497,18.497,0,0,1-4.819-1.841,20.0965,20.0965,0,0,1-4.119-3.042,25.15925,25.15925,0,0,1-3.308-3.854,26.01439,26.01439,0,0,1-2.506-4.435l-.062-.143.003-.163.282-12.426.006-.258.175-.191a37.239,37.239,0,0,0,4.437-5.954,53.77967,53.77967,0,0,0,3.316-6.713,72.00315,72.00315,0,0,0,2.435-7.114,66.16013,66.16013,0,0,0,1.695-7.329l.039-.235.209-.07a15.62378,15.62378,0,0,0,5.338-2.908,8.87586,8.87586,0,0,0,1.88-2.354,7.81882,7.81882,0,0,0,.84-2.898,12.75586,12.75586,0,0,0-1.128-6.001,23.21722,23.21722,0,0,0-3.188-5.337"></path><path fill="#f9c746" d="M671.55658,415.62939s-5.786-79.732-29.049-92.421-43-20.913-43-20.913l-18.02,14.165a23.33613,23.33613,0,0,1-29.017-.137l-17.50305-14.028s-19.737,8.224-43,20.913-34.909,92.421-34.909,92.421"></path><polygon points="498.782 352.345 498.782 396.99 495.492 405.919 498.782 352.345"></polygon><polygon points="635.302 352.345 635.302 396.99 632.013 405.919 635.302 352.345"></polygon><path fill="#946026" d="M568.08893,230.0625c2.987,0,2.99194-4.642,0-4.642-2.986,0-2.991,4.642,0,4.642"></path><path fill="#e8e136" d="M536.6123 246.63181a1.1612 1.1612 0 000-2.321 1.1612 1.1612 0 000 2.321M599.41022 246.63181a1.16121 1.16121 0 000-2.321 1.16121 1.16121 0 000 2.321"></path><path d="M555.792 253.18951a15.16466 15.16466 0 0111.063-5.436 13.79216 13.79216 0 013.229.299 14.24418 14.24418 0 015.66 2.871 18.92043 18.92043 0 012.136 2.266c-.95-.456-1.76495-1.042-2.669-1.466a19.76315 19.76315 0 00-2.708-1.135l-.68506-.228a3.04655 3.04655 0 00-.689-.196l-1.398-.291a16.93112 16.93112 0 00-2.827-.163 19.21433 19.21433 0 00-5.639 1.024 33.71913 33.71913 0 00-5.473 2.455M568.18359 253.18951a30.20108 30.20108 0 01.762 4.758c.142 1.587.218 3.173.217 4.759.005 1.586-.073 3.172-.215 4.758a29.63646 29.63646 0 01-.764 4.758 29.85 29.85 0 01-.764-4.758c-.142-1.586-.219-3.172-.215-4.758-.001-1.586.07495-3.172.218-4.759a30.07836 30.07836 0 01.761-4.758M587.45508 265.10739a6.227 6.227 0 11-6.228-6.227 6.22734 6.22734 0 016.228 6.227"></path></g><g clip-path="url(#c)"><path fill="#ae6d29" d="M462.38089 296.78371c2.987 0 2.992-4.642 0-4.642-2.986 0-2.991 4.642 0 4.642M481.72171 296.78371c2.987 0 2.992-4.642 0-4.642-2.986 0-2.991 4.642 0 4.642M501.0625 296.78371c2.987 0 2.992-4.642 0-4.642-2.986 0-2.991 4.642 0 4.642M520.4043 296.78371c2.986 0 2.991-4.642 0-4.642-2.98706 0-2.992 4.642 0 4.642M462.38089 335.4653c2.987 0 2.992-4.642 0-4.642-2.986 0-2.991 4.642 0 4.642M481.72171 335.4653c2.987 0 2.992-4.642 0-4.642-2.986 0-2.991 4.642 0 4.642M501.0625 335.4653c2.987 0 2.992-4.642 0-4.642-2.986 0-2.991 4.642 0 4.642M520.4043 335.4653c2.986 0 2.991-4.642 0-4.642-2.98706 0-2.992 4.642 0 4.642M472.8252 316.1245c2.987 0 2.992-4.642 0-4.642-2.986 0-2.991 4.642 0 4.642M492.166 316.1245c2.987 0 2.992-4.642 0-4.642-2.986 0-2.991 4.642 0 4.642M511.50681 316.1245c2.987 0 2.992-4.642 0-4.642-2.986 0-2.991 4.642 0 4.642M530.84772 316.1245c2.987 0 2.99194-4.642 0-4.642-2.986 0-2.991 4.642 0 4.642M472.8252 354.8062c2.987 0 2.992-4.642 0-4.642-2.986 0-2.991 4.642 0 4.642M492.166 354.8062c2.987 0 2.992-4.642 0-4.642-2.986 0-2.991 4.642 0 4.642M511.50681 354.8062c2.987 0 2.992-4.642 0-4.642-2.986 0-2.991 4.642 0 4.642M530.84772 354.8062c2.987 0 2.99194-4.642 0-4.642-2.986 0-2.991 4.642 0 4.642M462.38089 374.147c2.987 0 2.992-4.642 0-4.642-2.986 0-2.991 4.642 0 4.642M481.72171 374.147c2.987 0 2.992-4.642 0-4.642-2.986 0-2.991 4.642 0 4.642M501.0625 374.147c2.987 0 2.992-4.642 0-4.642-2.986 0-2.991 4.642 0 4.642M520.4043 374.147c2.986 0 2.991-4.642 0-4.642-2.98706 0-2.992 4.642 0 4.642M462.38089 412.8286c2.987 0 2.992-4.642 0-4.642-2.986 0-2.991 4.642 0 4.642M481.72171 412.8286c2.987 0 2.992-4.642 0-4.642-2.986 0-2.991 4.642 0 4.642M501.0625 412.8286c2.987 0 2.992-4.642 0-4.642-2.986 0-2.991 4.642 0 4.642M520.4043 412.8286c2.986 0 2.991-4.642 0-4.642-2.98706 0-2.992 4.642 0 4.642M472.8252 393.48779c2.987 0 2.992-4.642 0-4.642-2.986 0-2.991 4.642 0 4.642M492.166 393.48779c2.987 0 2.992-4.642 0-4.642-2.986 0-2.991 4.642 0 4.642M511.50681 393.48779c2.987 0 2.992-4.642 0-4.642-2.986 0-2.991 4.642 0 4.642M530.84772 393.48779c2.987 0 2.99194-4.642 0-4.642-2.986 0-2.991 4.642 0 4.642M472.8252 432.1694c2.987 0 2.992-4.642 0-4.642-2.986 0-2.991 4.642 0 4.642M492.166 432.1694c2.987 0 2.992-4.642 0-4.642-2.986 0-2.991 4.642 0 4.642M511.50681 432.1694c2.987 0 2.992-4.642 0-4.642-2.986 0-2.991 4.642 0 4.642M530.84772 432.1694c2.987 0 2.99194-4.642 0-4.642-2.986 0-2.991 4.642 0 4.642M539.74512 296.78371c2.986 0 2.991-4.642 0-4.642-2.98706 0-2.992 4.642 0 4.642M539.74512 335.4653c2.986 0 2.991-4.642 0-4.642-2.98706 0-2.992 4.642 0 4.642M550.18848 316.1245c2.987 0 2.99194-4.642 0-4.642-2.986 0-2.991 4.642 0 4.642M550.18848 354.8062c2.987 0 2.99194-4.642 0-4.642-2.986 0-2.991 4.642 0 4.642M539.74512 374.147c2.986 0 2.991-4.642 0-4.642-2.98706 0-2.992 4.642 0 4.642M539.74512 412.8286c2.986 0 2.991-4.642 0-4.642-2.98706 0-2.992 4.642 0 4.642M550.18848 393.48779c2.987 0 2.99194-4.642 0-4.642-2.986 0-2.991 4.642 0 4.642M550.18848 432.1694c2.987 0 2.99194-4.642 0-4.642-2.986 0-2.991 4.642 0 4.642M559.08588 296.78371c2.986 0 2.991-4.642 0-4.642-2.98706 0-2.992 4.642 0 4.642M559.08588 335.4653c2.986 0 2.991-4.642 0-4.642-2.98706 0-2.992 4.642 0 4.642M569.5293 316.1245c2.987 0 2.99194-4.642 0-4.642-2.986 0-2.991 4.642 0 4.642M569.5293 354.8062c2.987 0 2.99194-4.642 0-4.642-2.986 0-2.991 4.642 0 4.642M559.08588 374.147c2.986 0 2.991-4.642 0-4.642-2.98706 0-2.992 4.642 0 4.642M559.08588 412.8286c2.986 0 2.991-4.642 0-4.642-2.98706 0-2.992 4.642 0 4.642M569.5293 393.48779c2.987 0 2.99194-4.642 0-4.642-2.986 0-2.991 4.642 0 4.642M569.5293 432.1694c2.987 0 2.99194-4.642 0-4.642-2.986 0-2.991 4.642 0 4.642M578.42682 296.78371c2.986 0 2.991-4.642 0-4.642-2.98706 0-2.992 4.642 0 4.642M578.42682 335.4653c2.986 0 2.991-4.642 0-4.642-2.98706 0-2.992 4.642 0 4.642M588.87012 316.1245c2.987 0 2.99194-4.642 0-4.642-2.986 0-2.991 4.642 0 4.642M588.87012 354.8062c2.987 0 2.99194-4.642 0-4.642-2.986 0-2.991 4.642 0 4.642M578.42682 374.147c2.986 0 2.991-4.642 0-4.642-2.98706 0-2.992 4.642 0 4.642M578.42682 412.8286c2.986 0 2.991-4.642 0-4.642-2.98706 0-2.992 4.642 0 4.642M588.87012 393.48779c2.987 0 2.99194-4.642 0-4.642-2.986 0-2.991 4.642 0 4.642M588.87012 432.1694c2.987 0 2.99194-4.642 0-4.642-2.986 0-2.991 4.642 0 4.642M597.76758 296.78371c2.986 0 2.991-4.642 0-4.642-2.98706 0-2.992 4.642 0 4.642M597.76758 335.4653c2.986 0 2.991-4.642 0-4.642-2.98706 0-2.992 4.642 0 4.642M608.21088 316.1245c2.987 0 2.99194-4.642 0-4.642-2.986 0-2.991 4.642 0 4.642M608.21088 354.8062c2.987 0 2.99194-4.642 0-4.642-2.986 0-2.991 4.642 0 4.642M597.76758 374.147c2.986 0 2.991-4.642 0-4.642-2.98706 0-2.992 4.642 0 4.642M597.76758 412.8286c2.986 0 2.991-4.642 0-4.642-2.98706 0-2.992 4.642 0 4.642M608.21088 393.48779c2.987 0 2.99194-4.642 0-4.642-2.986 0-2.991 4.642 0 4.642M608.21088 432.1694c2.987 0 2.99194-4.642 0-4.642-2.986 0-2.991 4.642 0 4.642M617.1084 296.78371c2.986 0 2.991-4.642 0-4.642-2.98706 0-2.992 4.642 0 4.642M617.1084 335.4653c2.986 0 2.991-4.642 0-4.642-2.98706 0-2.992 4.642 0 4.642M627.55267 316.1245c2.986 0 2.991-4.642 0-4.642-2.98706 0-2.992 4.642 0 4.642M627.55267 354.8062c2.986 0 2.991-4.642 0-4.642-2.98706 0-2.992 4.642 0 4.642M617.1084 374.147c2.986 0 2.991-4.642 0-4.642-2.98706 0-2.992 4.642 0 4.642M617.1084 412.8286c2.986 0 2.991-4.642 0-4.642-2.98706 0-2.992 4.642 0 4.642M627.55267 393.48779c2.986 0 2.991-4.642 0-4.642-2.98706 0-2.992 4.642 0 4.642M627.55267 432.1694c2.986 0 2.991-4.642 0-4.642-2.98706 0-2.992 4.642 0 4.642M636.44922 296.78371c2.986 0 2.991-4.642 0-4.642-2.98706 0-2.992 4.642 0 4.642M636.44922 335.4653c2.986 0 2.991-4.642 0-4.642-2.98706 0-2.992 4.642 0 4.642M646.89362 316.1245c2.986 0 2.991-4.642 0-4.642-2.98706 0-2.992 4.642 0 4.642M646.89362 354.8062c2.986 0 2.991-4.642 0-4.642-2.98706 0-2.992 4.642 0 4.642M636.44922 374.147c2.986 0 2.991-4.642 0-4.642-2.98706 0-2.992 4.642 0 4.642M636.44922 412.8286c2.986 0 2.991-4.642 0-4.642-2.98706 0-2.992 4.642 0 4.642M646.89362 393.48779c2.986 0 2.991-4.642 0-4.642-2.98706 0-2.992 4.642 0 4.642M646.89362 432.1694c2.986 0 2.991-4.642 0-4.642-2.98706 0-2.992 4.642 0 4.642M655.79 296.78371c2.986 0 2.991-4.642 0-4.642-2.98706 0-2.992 4.642 0 4.642M655.79 335.4653c2.986 0 2.991-4.642 0-4.642-2.98706 0-2.992 4.642 0 4.642M666.23438 316.1245c2.986 0 2.991-4.642 0-4.642-2.98707 0-2.992 4.642 0 4.642M666.23438 354.8062c2.986 0 2.991-4.642 0-4.642-2.98707 0-2.992 4.642 0 4.642M655.79 374.147c2.986 0 2.991-4.642 0-4.642-2.98706 0-2.992 4.642 0 4.642M655.79 412.8286c2.986 0 2.991-4.642 0-4.642-2.98706 0-2.992 4.642 0 4.642M666.23438 393.48779c2.986 0 2.991-4.642 0-4.642-2.98707 0-2.992 4.642 0 4.642M666.23438 432.1694c2.986 0 2.991-4.642 0-4.642-2.98707 0-2.992 4.642 0 4.642"></path></g><g clip-path="url(#b)"><path fill="#817ab8" d="M577.7334,415.62939c-2.28-4.911,4.368-23.498,6.875-28.511s3.342-23.394,3.464-42.612c.121-19.217,11.435-42.211,11.435-42.211a104.035,104.035,0,0,1,23.456,10.599s5.599,25.008,1.206,43.716c-4.394,18.709-7.898,36.773-6.638,42.234,1.259,5.462,3.357,25.09-.012,29.328"></path></g><text font-family="Gilroy-Bold, Gilroy" font-size="30.538" font-weight="700" transform="translate(221.772 241.112)">Main<tspan x="69.168" y="0" letter-spacing="-.023em">t</tspan><tspan x="80.223" y="0">ain D</tspan><tspan x="153.911" y="0" letter-spacing="-.004em">i</tspan><tspan x="161.332" y="0" letter-spacing="-.02em">s</tspan><tspan x="174.921" y="0" letter-spacing="-.022em">t</tspan><tspan x="186.006" y="0">an</tspan><tspan x="222.744" y="0" letter-spacing="-.012em">c</tspan><tspan x="238.746" y="0">e</tspan></text></svg>